<mxfile host="65bd71144e">
    <diagram id="NKBDkrfCbtEeeVmyoVjP" name="Page-1">
        <mxGraphModel dx="1216" dy="749" grid="1" gridSize="10" guides="1" tooltips="1" connect="1" arrows="1" fold="1" page="1" pageScale="1" pageWidth="850" pageHeight="1100" math="0" shadow="0">
            <root>
                <mxCell id="0"/>
                <mxCell id="1" parent="0"/>
                <mxCell id="3" value="Kadean AFB&lt;span style=&quot;white-space: pre;&quot;&gt;&#9;&lt;/span&gt;&lt;span style=&quot;white-space: pre;&quot;&gt;&#9;&lt;/span&gt;&lt;span style=&quot;white-space: pre;&quot;&gt;&#9;&lt;/span&gt;&lt;span style=&quot;white-space: pre;&quot;&gt;&#9;&lt;/span&gt;&lt;span style=&quot;white-space: pre;&quot;&gt;&#9;&lt;/span&gt;&lt;span style=&quot;white-space: pre;&quot;&gt;&#9;&lt;/span&gt;&lt;span style=&quot;white-space: pre;&quot;&gt;&#9;&lt;/span&gt;&lt;span style=&quot;white-space: pre;&quot;&gt;&#9;&lt;/span&gt;&lt;span style=&quot;white-space: pre;&quot;&gt;&#9;&lt;/span&gt;&lt;span style=&quot;white-space: pre;&quot;&gt;&#9;&lt;/span&gt;&lt;span style=&quot;white-space: pre;&quot;&gt;&#9;&lt;/span&gt;&lt;span style=&quot;white-space: pre;&quot;&gt;&#9;&lt;/span&gt;&lt;span style=&quot;white-space: pre;&quot;&gt;&#9;&lt;/span&gt;&lt;span style=&quot;white-space: pre;&quot;&gt;&#9;&lt;/span&gt;&lt;span style=&quot;white-space: pre;&quot;&gt;&#9;&lt;/span&gt;&lt;span style=&quot;white-space: pre;&quot;&gt;&#9;&lt;/span&gt;&lt;span style=&quot;white-space: pre;&quot;&gt;&#9;&lt;/span&gt;&lt;span style=&quot;white-space: pre;&quot;&gt;&#9;&lt;/span&gt;&lt;span style=&quot;white-space: pre;&quot;&gt;&#9;&lt;/span&gt;&lt;span style=&quot;white-space: pre;&quot;&gt;&#9;&lt;/span&gt;&lt;span style=&quot;white-space: pre;&quot;&gt;&#9;&lt;/span&gt;&lt;span style=&quot;white-space: pre;&quot;&gt;&#9;&lt;/span&gt;&lt;span style=&quot;white-space: pre;&quot;&gt;&#9;&lt;/span&gt;" style="swimlane;whiteSpace=wrap;html=1;" parent="1" vertex="1">
                    <mxGeometry x="30" y="70" width="790" height="530" as="geometry"/>
                </mxCell>
                <mxCell id="4" value="" style="rounded=0;whiteSpace=wrap;html=1;dashed=1;" parent="3" vertex="1">
                    <mxGeometry x="15" y="30" width="760" height="490" as="geometry"/>
                </mxCell>
                <mxCell id="5" value="WIng Commander" style="rounded=0;whiteSpace=wrap;html=1;verticalAlign=top;" parent="3" vertex="1">
                    <mxGeometry x="50" y="110" width="120" height="130" as="geometry"/>
                </mxCell>
                <mxCell id="6" value="Deputy" style="rounded=0;whiteSpace=wrap;html=1;verticalAlign=top;" parent="3" vertex="1">
                    <mxGeometry x="220" y="110" width="120" height="130" as="geometry"/>
                </mxCell>
                <mxCell id="7" value="Chief" style="rounded=0;whiteSpace=wrap;html=1;verticalAlign=top;" parent="3" vertex="1">
                    <mxGeometry x="390" y="110" width="120" height="130" as="geometry"/>
                </mxCell>
                <mxCell id="20" value="" style="rounded=0;whiteSpace=wrap;html=1;" parent="3" vertex="1">
                    <mxGeometry x="570" y="110" width="170" height="410" as="geometry"/>
                </mxCell>
                <mxCell id="42" value="Logo" style="rounded=0;whiteSpace=wrap;html=1;dashed=1;" parent="3" vertex="1">
                    <mxGeometry x="602.5" y="131" width="105" height="80" as="geometry"/>
                </mxCell>
                <mxCell id="43" value="" style="aspect=fixed;perimeter=ellipsePerimeter;html=1;align=center;shadow=0;dashed=0;spacingTop=3;image;image=img/lib/active_directory/user.svg;" parent="3" vertex="1">
                    <mxGeometry x="100.75" y="161" width="18.5" height="50" as="geometry"/>
                </mxCell>
                <mxCell id="45" value="" style="aspect=fixed;perimeter=ellipsePerimeter;html=1;align=center;shadow=0;dashed=0;spacingTop=3;image;image=img/lib/active_directory/user.svg;" parent="3" vertex="1">
                    <mxGeometry x="270.75" y="161" width="18.5" height="50" as="geometry"/>
                </mxCell>
                <mxCell id="44" value="" style="aspect=fixed;perimeter=ellipsePerimeter;html=1;align=center;shadow=0;dashed=0;spacingTop=3;image;image=img/lib/active_directory/user.svg;" parent="3" vertex="1">
                    <mxGeometry x="440.75" y="161" width="18.5" height="50" as="geometry"/>
                </mxCell>
                <mxCell id="46" value="" style="aspect=fixed;perimeter=ellipsePerimeter;html=1;align=center;shadow=0;dashed=0;spacingTop=3;image;image=img/lib/active_directory/internet_globe.svg;" parent="3" vertex="1">
                    <mxGeometry x="630" y="146" width="50" height="50" as="geometry"/>
                </mxCell>
                <mxCell id="47" value="Navigation" style="shape=doubleArrow;whiteSpace=wrap;html=1;dashed=1;arrowWidth=1;arrowSize=0;" parent="3" vertex="1">
                    <mxGeometry x="50" y="30" width="710" height="60" as="geometry"/>
                </mxCell>
                <mxCell id="49" value="Helpful resources/ support links" style="rounded=1;whiteSpace=wrap;html=1;dashed=1;" parent="3" vertex="1">
                    <mxGeometry x="595" y="230" width="120" height="280" as="geometry"/>
                </mxCell>
                <mxCell id="51" value="Quick Link Web Part" style="rounded=1;whiteSpace=wrap;html=1;dashed=1;arcSize=0;" parent="3" vertex="1">
                    <mxGeometry x="50" y="270" width="470" height="240" as="geometry"/>
                </mxCell>
            </root>
        </mxGraphModel>
    </diagram>
</mxfile>